<svg id="Layer_1" data-name="Layer 1" xmlns="http://www.w3.org/2000/svg" xmlns:xlink="http://www.w3.org/1999/xlink" viewBox="0 0 60 60"><defs><style>.cls-1{fill:none;}.cls-2{clip-path:url(#clip-path);}.cls-3{clip-path:url(#clip-path-2);}</style><clipPath id="clip-path"><rect class="cls-1" x="4.39" y="4.39" width="51.22" height="51.22"/></clipPath><clipPath id="clip-path-2"><rect class="cls-1" x="17.39" y="22.7" width="25.25" height="25.25"/></clipPath></defs><g class="cls-2"><path d="M55.16,28.89,32.56,5.47h0a3.58,3.58,0,0,0-5.08,0l0,0h0L4.84,28.89a1.6,1.6,0,0,0,2.3,2.22h0l1.25-1.29V51A4.62,4.62,0,0,0,13,55.61H47A4.62,4.62,0,0,0,51.61,51V29.82l1.25,1.29a1.59,1.59,0,0,0,2.26,0A1.61,1.61,0,0,0,55.16,28.89ZM48.4,51A1.39,1.39,0,0,1,47,52.41H13A1.4,1.4,0,0,1,11.6,51h0V26.5L29.73,7.72a.4.4,0,0,1,.54,0L48.4,26.5Z"/><g class="cls-3"><path d="M34.5,30.85A6.37,6.37,0,0,0,30,29a6.24,6.24,0,0,0-4.46,1.87A6.36,6.36,0,0,0,30,41.67a6.23,6.23,0,0,0,4.48-1.87,6.39,6.39,0,0,0,1.87-4.48A6.24,6.24,0,0,0,34.5,30.85ZM33.29,38.6a4.66,4.66,0,1,1,1.34-3.27,4.68,4.68,0,0,1-1.34,3.27Z"/><path d="M41.78,34.46H39.22a.85.85,0,1,0,0,1.7h2.56a.85.85,0,0,0,0-1.7Z"/><path d="M30,43.66a.85.85,0,0,0-.85.85v2.56a.85.85,0,1,0,1.7,0V44.51A.85.85,0,0,0,30,43.66Z"/><path d="M38.94,43,37.1,41.2a.85.85,0,0,0-1.2,1.2l1.83,1.84a.87.87,0,0,0,1.21-.09A.88.88,0,0,0,38.94,43Z"/><path d="M30,22.7a.85.85,0,0,0-.85.86v2.56a.85.85,0,0,0,1.7,0V23.56A.85.85,0,0,0,30,22.7Z"/><path d="M39,26.41a.85.85,0,0,0-1.2,0L36,28.24a.85.85,0,1,0,1.11,1.3l.09-.09L39,27.61A.85.85,0,0,0,39,26.41Z"/><path d="M20.83,34.46H18.27a.85.85,0,1,0,0,1.7h2.56a.85.85,0,1,0,0-1.7Z"/><path d="M24.11,41.2a.85.85,0,0,0-1.2,0L21.07,43a.87.87,0,1,0,1.25,1.21h0l1.83-1.84A.85.85,0,0,0,24.11,41.2Z"/><path d="M24.11,28.24l-1.79-1.83A.85.85,0,1,0,21,27.52l.09.09L23,29.45a.86.86,0,0,0,1.3-1.12l-.1-.09Z"/></g></g></svg>