<svg width="67" height="72" viewBox="0 0 67 72" fill="none" xmlns="http://www.w3.org/2000/svg">
<g clip-path="url(#clip0)">
<path d="M66.4746 40.6992L40.0068 13.2607C39.9991 13.2526 39.9911 13.2446 39.9832 13.2367C38.3382 11.5917 35.6619 11.5917 34.0169 13.2367C34.0089 13.2446 34.001 13.2526 33.9932 13.2607L27.5 20.0004L21.75 25.8698L16 31.7393L7.52551 40.6992C6.80657 41.4445 6.82801 42.6315 7.57321 43.3504C8.31864 44.0694 9.50551 44.0479 10.2245 43.3026L11.6875 41.786V66.6103C11.6875 69.5826 14.1058 72.0009 17.0782 72.0009H56.9219C59.8943 72.0009 62.3125 69.5826 62.3125 66.6103V41.786L63.7755 43.3026C64.1435 43.6841 64.6339 43.876 65.1253 43.8759C65.5938 43.8759 66.063 43.7013 66.4268 43.3504C67.1721 42.6315 67.1934 41.4446 66.4746 40.6992ZM58.5625 66.6104C58.5625 67.5151 57.8266 68.251 56.9219 68.251H17.0782C16.1735 68.251 15.4375 67.5151 15.4375 66.6104V37.8984L18.5 34.5004L36.6759 15.881C36.8567 15.7079 37.1432 15.7079 37.3241 15.881L58.5625 37.8984V66.6104Z" fill="black"/>
<rect x="11" y="26.3389" width="18.864" height="14" transform="rotate(-45 11 26.3389)" fill="white"/>
</g>
<g clip-path="url(#clip1)">
<path d="M16.9313 8.06865C15.807 6.94431 14.2197 6.2168 12.5001 6.2168C10.7805 6.2168 9.19323 6.91124 8.06889 8.06865C6.94455 9.19299 6.21704 10.7803 6.21704 12.4999C6.21704 14.2194 6.94455 15.8067 8.06889 16.9311C9.19323 18.0554 10.7805 18.7829 12.5001 18.7829C14.2197 18.7829 15.807 18.0885 16.9313 16.9311C18.0557 15.8067 18.7832 14.2194 18.7832 12.4999C18.7832 10.7803 18.0887 9.19299 16.9313 8.06865ZM15.7409 15.7406C14.9141 16.5673 13.7567 17.0634 12.5001 17.0634C11.2435 17.0634 10.0861 16.5673 9.25937 15.7406C8.43265 14.9139 7.93662 13.7565 7.93662 12.4999C7.93662 11.2433 8.43265 10.0858 9.25937 9.25912C10.0861 8.43241 11.2435 7.93637 12.5001 7.93637C13.7567 7.93637 14.9141 8.43241 15.7409 9.25912C16.5676 10.0858 17.0636 11.2433 17.0636 12.4999C17.0636 13.7565 16.5676 14.9139 15.7409 15.7406Z" fill="black"/>
<path d="M24.1405 11.6406H21.5942C21.1312 11.6406 20.7344 12.0375 20.7344 12.5004C20.7344 12.9634 21.1312 13.3602 21.5942 13.3602H24.1405C24.6034 13.3602 25.0002 12.9634 25.0002 12.5004C25.0002 12.0375 24.6034 11.6406 24.1405 11.6406Z" fill="black"/>
<path d="M12.5016 20.7344C12.0387 20.7344 11.6418 21.1312 11.6418 21.5942V24.1405C11.6418 24.6034 12.0387 25.0002 12.5016 25.0002C12.9646 25.0002 13.3614 24.6034 13.3614 24.1405V21.5942C13.3614 21.1312 12.9646 20.7344 12.5016 20.7344Z" fill="black"/>
<path d="M21.33 20.1391L19.5112 18.3203C19.2136 17.9896 18.6515 17.9896 18.3208 18.3203C17.9901 18.651 17.9901 19.1801 18.3208 19.5108L20.1395 21.3295C20.4702 21.6602 20.9993 21.6602 21.33 21.3295C21.6607 20.9988 21.6607 20.4698 21.33 20.1391Z" fill="black"/>
<path d="M12.5016 0C12.0387 0 11.6418 0.396825 11.6418 0.859788V3.40608C11.6418 3.86905 12.0387 4.26587 12.5016 4.26587C12.9646 4.26587 13.3614 3.86905 13.3614 3.40608V0.859788C13.3614 0.396825 12.9646 0 12.5016 0Z" fill="black"/>
<path d="M21.363 3.67087C21.0323 3.34018 20.5032 3.34018 20.1725 3.67087L18.3537 5.48965C18.023 5.82034 18.023 6.34944 18.3537 6.68013C18.6513 7.01082 19.2135 7.01082 19.5442 6.68013L21.363 4.86134C21.6937 4.53066 21.6937 4.00156 21.363 3.67087Z" fill="black"/>
<path d="M3.40608 11.6406H0.859788C0.396825 11.6406 0 12.0375 0 12.5004C0 12.9634 0.363757 13.3602 0.859788 13.3602H3.40608C3.86905 13.3602 4.26587 12.9634 4.26587 12.5004C4.26587 12.0375 3.86905 11.6406 3.40608 11.6406Z" fill="black"/>
<path d="M6.64815 18.3203C6.35053 17.9896 5.78836 17.9896 5.45767 18.3203L3.63889 20.1391C3.3082 20.4698 3.3082 20.9988 3.63889 21.3295C3.96957 21.6602 4.49867 21.6602 4.82936 21.3295L6.64815 19.5108C6.97883 19.1801 6.97883 18.651 6.64815 18.3203Z" fill="black"/>
<path d="M6.64815 5.48965L4.82936 3.67087C4.49867 3.34018 3.96957 3.34018 3.63889 3.67087C3.3082 4.00156 3.3082 4.53066 3.63889 4.86134L5.45767 6.68013C5.78836 7.01082 6.31746 7.01082 6.64815 6.68013C6.97883 6.34944 6.97883 5.82034 6.64815 5.48965Z" fill="black"/>
</g>
<defs>
<clipPath id="clip0">
<rect width="60" height="60" fill="white" transform="translate(7 12)"/>
</clipPath>
<clipPath id="clip1">
<rect width="25" height="25" fill="white"/>
</clipPath>
</defs>
</svg>
