<svg id="Layer_1" data-name="Layer 1" xmlns="http://www.w3.org/2000/svg" xmlns:xlink="http://www.w3.org/1999/xlink" viewBox="0 0 66 77"><defs><style>.cls-1{fill:none;}.cls-2{clip-path:url(#clip-path);}.cls-3{clip-path:url(#clip-path-2);}.cls-4{clip-path:url(#clip-path-3);}</style><clipPath id="clip-path"><rect class="cls-1" x="6" y="17" width="60" height="60"/></clipPath><clipPath id="clip-path-2"><rect class="cls-1" x="26" y="40" width="20" height="27"/></clipPath><clipPath id="clip-path-3"><rect class="cls-1" width="27" height="27"/></clipPath></defs><g class="cls-2"><path d="M65.47,45.7,39,18.26l0,0a4.21,4.21,0,0,0-6,0l0,0L6.53,45.7a1.87,1.87,0,1,0,2.69,2.6l1.47-1.51V71.61A5.4,5.4,0,0,0,16.08,77H55.92a5.4,5.4,0,0,0,5.39-5.39V46.79l1.47,1.51a1.86,1.86,0,0,0,1.35.58,1.9,1.9,0,0,0,1.3-.53A1.88,1.88,0,0,0,65.47,45.7ZM57.56,71.61a1.63,1.63,0,0,1-1.64,1.64H16.08a1.63,1.63,0,0,1-1.64-1.64V42.9l21.24-22a.47.47,0,0,1,.64,0l21.24,22Z"/><g class="cls-3"><path d="M45.94,55.81c-.3-4-2.15-6.55-3.79-8.78-1.51-2.06-2.82-3.84-2.82-6.47a.51.51,0,0,0-.08-.29.56.56,0,0,0-.22-.21.49.49,0,0,0-.29-.06.59.59,0,0,0-.29.1,14.31,14.31,0,0,0-5.21,7.64,25,25,0,0,0-.57,5.7c-2.27-.49-2.78-3.92-2.79-4a.54.54,0,0,0-.09-.24.55.55,0,0,0-.2-.17.43.43,0,0,0-.25-.07.54.54,0,0,0-.25.06c-.12,0-2.92,1.49-3.08,7.24,0,.19,0,.38,0,.57A10.08,10.08,0,0,0,36,67h0A10.08,10.08,0,0,0,46,56.87C46,56.59,45.94,55.81,45.94,55.81ZM36,65.87a3.47,3.47,0,0,1-3.33-3.59v-.22A4.61,4.61,0,0,1,33,60.27a2,2,0,0,0,1.83,1.35.54.54,0,0,0,.22,0,.71.71,0,0,0,.18-.12.76.76,0,0,0,.12-.19.52.52,0,0,0,0-.21,11.8,11.8,0,0,1,.21-2.56,5.55,5.55,0,0,1,1.13-2.16,7.15,7.15,0,0,0,1.14,2.13A6.44,6.44,0,0,1,39.32,62c0,.1,0,.2,0,.3A3.47,3.47,0,0,1,36,65.87Z"/></g></g><g class="cls-4"><path d="M26.73,12.82l0-.05c-1.3-4.14-4-4.87-6.24-5.46-2.55-.68-4.24-1.13-3.7-6.44a.81.81,0,0,0-.09-.46.75.75,0,0,0-.34-.32A.73.73,0,0,0,15.88,0a.77.77,0,0,0-.42.19,8.07,8.07,0,0,0-2.34,3.54,7.3,7.3,0,0,0-.16,4,6.68,6.68,0,0,0,5.17,4.91l.07,0c3.16.47,5.26,3.11,5.75,7.24a.8.8,0,0,0,.59.68.73.73,0,0,0,.46,0,.81.81,0,0,0,.38-.28,9.07,9.07,0,0,0,1.35-7.41Zm-1.67,4.57a10,10,0,0,0-1.73-3.48,7.5,7.5,0,0,0-4.86-2.84,5.18,5.18,0,0,1-4-3.75,5.78,5.78,0,0,1,.6-4.2,6.14,6.14,0,0,0,1.21,3.8,6.72,6.72,0,0,0,3.76,1.92c2.1.56,4.09,1.09,5.13,4.38a7.77,7.77,0,0,1-.14,4.17Z"/><path d="M10.94,13.5c-2.39-1.27-4-2.31-4.71-3.62s-.66-2.79-.05-5.66a.79.79,0,0,0,0-.43.81.81,0,0,0-.25-.35.88.88,0,0,0-.41-.17.77.77,0,0,0-.42.08A8.87,8.87,0,0,0,1.42,6.54,8.38,8.38,0,0,0,0,11a6.6,6.6,0,0,0,.91,3.49,7.19,7.19,0,0,0,3,2.71c.58.3,1.22.57,1.83.84a11.58,11.58,0,0,1,4.21,2.58c1.08,1.29,1.26,3,.58,5.41a.75.75,0,0,0,0,.47.7.7,0,0,0,.26.37.74.74,0,0,0,.43.17.79.79,0,0,0,.45-.11c2.68-1.54,4.19-3.91,4.15-6.5a6.9,6.9,0,0,0-1.29-3.82A10,10,0,0,0,10.94,13.5Zm1.51,10.86a6.15,6.15,0,0,0-1.3-4.8,12.67,12.67,0,0,0-4.79-3c-.62-.27-1.2-.52-1.74-.8a5.13,5.13,0,0,1-3-4.76A7.22,7.22,0,0,1,4.3,5.68a7.86,7.86,0,0,0,.54,4.94c.89,1.67,2.64,2.84,5.35,4.28,2.54,1.34,4,3.35,4.05,5.52a5.32,5.32,0,0,1-1.79,3.94Z"/></g></svg>