<svg width="51" height="62" viewBox="0 0 51 62" fill="none" xmlns="http://www.w3.org/2000/svg">
<g clip-path="url(#clip0)">
<path d="M23.8265 11.5017C23.3509 11.2749 22.7905 11.335 22.3805 11.6657L9.0856 22.3011H2.73333C1.22727 22.3011 0 23.5284 0 25.0345V35.9678C0 37.4739 1.22727 38.7011 2.73333 38.7011H9.0856L22.3778 49.3365C22.6265 49.5333 22.9299 49.6345 23.2333 49.6345C23.4356 49.6345 23.6379 49.5907 23.8265 49.5005C24.2993 49.2709 24.6 48.7926 24.6 48.2678V12.7345C24.6 12.2097 24.2993 11.7313 23.8265 11.5017ZM8.2 35.9678H2.73333V25.0345H8.2V35.9678ZM21.8667 45.4224L10.9333 36.6757V24.3265L21.8667 15.5799V45.4224Z" fill="black"/>
<path d="M31.5227 20.8358C30.9842 20.3028 30.1205 20.311 29.5902 20.8467C29.0599 21.3852 29.0654 22.2489 29.6011 22.7792C31.6648 24.821 32.8019 27.5625 32.8019 30.5008C32.8019 33.4392 31.6648 36.1807 29.6011 38.2225C29.0627 38.7528 29.0572 39.6165 29.5902 40.155C29.8581 40.4256 30.2107 40.5595 30.5605 40.5595C30.9077 40.5595 31.2548 40.4283 31.5227 40.1632C34.1111 37.6075 35.5352 34.1772 35.5352 30.5008C35.5352 26.8245 34.1111 23.3942 31.5227 20.8358Z" fill="black"/>
<path d="M35.3772 16.9845C34.8415 16.4543 33.975 16.457 33.4447 16.9927C32.9145 17.5285 32.9172 18.3949 33.4529 18.9252C36.558 22.0057 38.2691 26.1166 38.2691 30.5009C38.2691 34.8851 36.558 38.9961 33.4529 42.0765C32.9172 42.6068 32.9145 43.4733 33.4447 44.009C33.7126 44.2796 34.0625 44.4135 34.4151 44.4135C34.7622 44.4135 35.1093 44.2823 35.3772 44.0172C39.0043 40.4201 41.0024 35.6204 41.0024 30.5009C41.0024 25.3813 39.0043 20.5816 35.3772 16.9845Z" fill="black"/>
</g>
<line x1="50" y1="1" x2="50" y2="61" stroke="black" stroke-width="2" stroke-linecap="round"/>
<defs>
<clipPath id="clip0">
<rect width="41" height="41" fill="white" transform="translate(0 10)"/>
</clipPath>
</defs>
</svg>
