<svg width="52" height="52" viewBox="0 0 52 52" fill="none" xmlns="http://www.w3.org/2000/svg">
<path d="M4.32422 39.0054H47.6756" stroke="#E63327" stroke-width="3" stroke-linecap="round" stroke-linejoin="round"/>
<path d="M6.49182 39.0054L7.6713 42.5439C8.26138 44.3141 9.91801 45.5081 11.784 45.5081H40.216C42.082 45.5081 43.7386 44.3141 44.3287 42.5439L45.5081 39.0054" stroke="#E63327" stroke-width="3" stroke-linecap="round" stroke-linejoin="round"/>
<path fill-rule="evenodd" clip-rule="evenodd" d="M25.1436 28.6984C23.1163 25.7491 23.6449 21.7449 26.368 19.4227C30.5659 15.6145 35.9924 14.7234 38.2602 16.9912C40.6321 19.3632 39.5483 25.191 35.2854 29.454C33.9038 30.8349 31.9893 31.5455 30.0413 31.4004C28.0934 31.2553 26.3053 30.2688 25.1436 28.6984V28.6984Z" stroke="#E63327" stroke-width="3" stroke-linecap="round" stroke-linejoin="round"/>
<path fill-rule="evenodd" clip-rule="evenodd" d="M44.6844 11.0871C46.3304 11.0871 47.6648 12.4215 47.6648 14.0675C47.6648 15.7136 46.3304 17.048 44.6844 17.048H42.7336C42.1543 17.0502 41.6 17.2844 41.1946 17.6982L39.4172 19.454C39.3062 18.5292 38.9039 17.6638 38.2684 16.9829C37.5875 16.3475 36.7221 15.9451 35.7974 15.8341L37.5531 14.0567C37.9669 13.6513 38.2011 13.097 38.2034 12.5177V10.5669C38.2034 8.92089 39.5377 7.58652 41.1838 7.58652C42.8298 7.58652 44.1642 8.92089 44.1642 10.5669V11.0871H44.6844Z" stroke="#E63327" stroke-width="3" stroke-linecap="round" stroke-linejoin="round"/>
<path d="M39.0921 23.1822C41.6947 25.652 43.2208 29.0468 43.3405 32.6328V33.5865C43.3394 36.5789 40.9139 39.0044 37.9216 39.0054H14.0783C11.086 39.0044 8.66051 36.5789 8.65942 33.5865V32.6328C8.65942 24.1793 18.1751 17.3297 26 17.3297C26.9463 17.329 27.8904 17.4234 28.8178 17.6115" stroke="#E63327" stroke-width="3" stroke-linecap="round" stroke-linejoin="round"/>
</svg>
