<svg width="52" height="52" viewBox="0 0 52 52" fill="none" xmlns="http://www.w3.org/2000/svg">
<path d="M12.1883 39.7752C18.4255 46.029 28.0865 47.3118 35.7396 42.9022C43.3927 38.4926 47.1281 29.4911 44.8457 20.9586C42.5633 12.426 34.8326 6.49191 26 6.49191" stroke="#E63327" stroke-width="3" stroke-linecap="round" stroke-linejoin="round"/>
<path d="M8.18551 33.4241C8.18544 33.4839 8.13691 33.5324 8.07709 33.5324C8.01727 33.5323 7.96878 33.4839 7.96875 33.424C7.96873 33.3642 8.01718 33.3157 8.077 33.3156C8.10579 33.3156 8.13341 33.327 8.15377 33.3474C8.17412 33.3677 8.18554 33.3953 8.18551 33.4241" stroke="#E63327" stroke-width="3" stroke-linecap="round" stroke-linejoin="round"/>
<path d="M6.70876 26.0002C6.70869 26.06 6.66016 26.1084 6.60034 26.1084C6.54052 26.1084 6.49203 26.0599 6.49201 26.0001C6.49198 25.9403 6.54043 25.8917 6.60026 25.8917C6.62905 25.8916 6.65666 25.9031 6.67702 25.9234C6.69738 25.9438 6.7088 25.9714 6.70876 26.0002" stroke="#E63327" stroke-width="3" stroke-linecap="round" stroke-linejoin="round"/>
<path d="M8.18551 18.5761C8.18551 18.6359 8.13701 18.6844 8.07718 18.6845C8.01734 18.6845 7.9688 18.636 7.96875 18.5762C7.96871 18.5163 8.01716 18.4678 8.077 18.4677C8.10579 18.4677 8.13342 18.4791 8.15377 18.4995C8.17413 18.5198 8.18555 18.5475 8.18551 18.5762" stroke="#E63327" stroke-width="3" stroke-linecap="round" stroke-linejoin="round"/>
<path d="M12.3908 12.2825C12.3907 12.3423 12.3422 12.3907 12.2824 12.3907C12.2226 12.3907 12.1741 12.3422 12.1741 12.2824C12.174 12.2226 12.2225 12.174 12.2823 12.174C12.3111 12.1739 12.3387 12.1853 12.3591 12.2057C12.3795 12.2261 12.3909 12.2537 12.3908 12.2825" stroke="#E63327" stroke-width="3" stroke-linecap="round" stroke-linejoin="round"/>
<path d="M18.6846 8.07714C18.6845 8.13696 18.636 8.18542 18.5761 8.18539C18.5163 8.18536 18.4678 8.13686 18.4678 8.07704C18.4678 8.01721 18.5163 7.96869 18.5761 7.96863C18.6049 7.96859 18.6325 7.98001 18.6529 8.00037C18.6732 8.02072 18.6847 8.04835 18.6846 8.07714" stroke="#E63327" stroke-width="3" stroke-linecap="round" stroke-linejoin="round"/>
<path d="M34.7738 27.3054H24.6946" stroke="#E63327" stroke-width="3" stroke-linecap="round" stroke-linejoin="round"/>
<path d="M24.6946 27.3054V15.1622" stroke="#E63327" stroke-width="3" stroke-linecap="round" stroke-linejoin="round"/>
</svg>
