<svg id="Layer_1" data-name="Layer 1" xmlns="http://www.w3.org/2000/svg" xmlns:xlink="http://www.w3.org/1999/xlink" viewBox="0 0 14.42 16"><defs><style>.cls-1{fill:none;}.cls-2{clip-path:url(#clip-path);}</style><clipPath id="clip-path"><rect class="cls-1" x="-0.78" width="16" height="16"/></clipPath></defs><g class="cls-2"><path d="M1,9.86,2.19,8.68,7.52,3.35A2.51,2.51,0,0,1,11.07,6.9L5.75,12.23A.56.56,0,1,1,5,11.44l5.32-5.33a1.38,1.38,0,0,0,0-2,1.4,1.4,0,0,0-2,0L3,9.47,1.8,10.65A2.51,2.51,0,0,0,5.35,14.2l1-1,5.52-5.52.39-.39A3.62,3.62,0,0,0,7.13,2.17L1.21,8.09a.56.56,0,0,1-.54.14.55.55,0,0,1-.39-.39A.54.54,0,0,1,.42,7.3L6.34,1.38A4.74,4.74,0,0,1,13,8.09L7.13,14l-1,1A3.63,3.63,0,0,1,1,9.86Z"/></g></svg>