<svg id="Layer_1" data-name="Layer 1" xmlns="http://www.w3.org/2000/svg" viewBox="0 0 16.5 16.5"><defs><style>.cls-1{fill-rule:evenodd;}</style></defs><path class="cls-1" d="M4.85.05C5.73,0,6,0,8.25,0s2.52,0,3.4.05a6.11,6.11,0,0,1,2,.38,4.21,4.21,0,0,1,1.47,1,4,4,0,0,1,1,1.46,6.11,6.11,0,0,1,.38,2c0,.88.05,1.16.05,3.4s0,2.52-.05,3.4a6.11,6.11,0,0,1-.38,2,4.33,4.33,0,0,1-1,1.47,4.18,4.18,0,0,1-1.47,1,6.11,6.11,0,0,1-2,.38c-.88,0-1.16.05-3.4.05s-2.52,0-3.4-.05a6.11,6.11,0,0,1-2-.38,4.33,4.33,0,0,1-1.47-1,4.18,4.18,0,0,1-.95-1.47,6.11,6.11,0,0,1-.38-2c0-.88,0-1.16,0-3.4s0-2.52.05-3.4a6.11,6.11,0,0,1,.38-2,4.21,4.21,0,0,1,1-1.47A4.05,4.05,0,0,1,2.85.43a6.11,6.11,0,0,1,2-.38Zm6.73,1.48c-.87,0-1.13,0-3.33,0s-2.46,0-3.33,0a4.78,4.78,0,0,0-1.54.29,2.49,2.49,0,0,0-.94.62,2.45,2.45,0,0,0-.62.94,4.71,4.71,0,0,0-.29,1.54c0,.87,0,1.13,0,3.33s0,2.46,0,3.33a4.78,4.78,0,0,0,.29,1.54,2.45,2.45,0,0,0,.62.94,2.45,2.45,0,0,0,.94.62A4.78,4.78,0,0,0,4.92,15c.87,0,1.13,0,3.33,0s2.46,0,3.33,0a4.78,4.78,0,0,0,1.54-.29,2.49,2.49,0,0,0,.94-.62,2.45,2.45,0,0,0,.62-.94A4.78,4.78,0,0,0,15,11.58c0-.87,0-1.13,0-3.33s0-2.46,0-3.33a4.71,4.71,0,0,0-.29-1.54,2.49,2.49,0,0,0-.62-.94,2.45,2.45,0,0,0-.94-.62A4.78,4.78,0,0,0,11.58,1.53ZM7.2,10.79a2.74,2.74,0,0,0,1.85.1,2.77,2.77,0,0,0,1.49-1.11A2.67,2.67,0,0,0,11,8,2.76,2.76,0,0,0,10.2,6.3a2.94,2.94,0,0,0-1-.64,2.72,2.72,0,0,0-2.34.23A2.79,2.79,0,0,0,6,6.72a2.83,2.83,0,0,0-.43,1.13,2.71,2.71,0,0,0,.09,1.2A2.7,2.7,0,0,0,7.2,10.79ZM5.25,5.25a4.45,4.45,0,0,1,1.38-.92,4.26,4.26,0,0,1,3.24,0,4.23,4.23,0,0,1,2.3,2.3,4.26,4.26,0,0,1,0,3.24,4.45,4.45,0,0,1-.92,1.38,4.24,4.24,0,0,1-6-6Zm8.18-.61a.9.9,0,0,0,.23-.32,1.38,1.38,0,0,0,.09-.39,1.1,1.1,0,0,0-.08-.4,1,1,0,0,0-.22-.33A1.06,1.06,0,0,0,13.12,3a1,1,0,0,0-.39-.07,1,1,0,0,0-.39.08,1.5,1.5,0,0,0-.33.23,1,1,0,0,0-.27.71,1,1,0,0,0,1,1A1,1,0,0,0,13.43,4.64Z"/></svg>