<svg xmlns="http://www.w3.org/2000/svg" viewBox="0 0 186 45">
    <defs>
        <clipPath id="a">
            <path fill="none" d="M0 0h186v45H0z" />
        </clipPath>
    </defs>
    <g clip-path="url(#a)">
        <path d="M186 0H0v45h186Z" />
        <path
            d="M20.9 9.21v2.31l.05.13.06.14.06.13.06.13.07.13.07.12 14.3 23.94h-3L22.54 19.13l-.08-.13-.08-.11-.08-.11-.08-.11-.09-.1-.13-.1-.1-.1-.1-.09-.1-.1-.1-.09-.07-.09-.11-.09-.11-.07-.12-.08-.11-.07-.08-.06-.12-.07-.13-.06-.12-.05-.13-.06-.13-.05H17.91l-.2.06-.2.07-.19.08-.19.08-.18.1-.18.1-.17.11-.17.12-.16.13-.16.14-.14.14-.15.15-.13.15-.13.17-.11.17-.11.17-.11.18-.09.19-.09.19-.07.19-.07.2-.06.2-.05.21V22.7l.05.14v.14L15 23v.14l.06.13.07.13.07.13.07.12 7.51 12.58h-3l-3.52-5.91-.08-.11-.08-.12-.05-.09-.05-.12-.09-.1-.09-.11-.1-.09-.1-.1-.1-.09-.1-.09-.11-.09-.11-.08-.11-.08L15 29l-.12-.07-.12-.07-.12-.06-.13-.07-.12-.05h-.13l-.13-.05-.13-.13h-2.31l-.2.05V8.79H21l-.07.3v.06Zm98.52 11.33h3.46V24h-3.46Zm-66.76.75V28H47.3V17h5.26l5.75 6.72V17h5.3v11H58ZM169.43 28H164v-8.48h-5.12V17h15.67v2.48h-5.16ZM66 28V17h14v2.34h-8.62v2H80v2.34h-8.63v2H80V28Zm40.17-6.68V28h-5.37V17h5.26l5.75 6.72V17h5.3v11h-5.63Zm49.7 2.68 2.84 4h-5.84l-2.56-3.9h-2.94V28h-5.31V17h11.74a4.08 4.08 0 0 1 3.2 1 3.69 3.69 0 0 1 1 2.58 3.59 3.59 0 0 1-2.13 3.42Zm-8.5-2.25h4.58a1.11 1.11 0 0 0 1-1.13 1.13 1.13 0 0 0-.83-1.1 3 3 0 0 0-.57-.06h-4.18Zm-55.21-5.21c4.07.45 7.14 2.59 7.16 6s-3.15 5.59-7.3 6a15.1 15.1 0 0 1-3.08 0c-4.12-.44-7.26-2.59-7.25-6s3.13-5.56 7.23-6a14.63 14.63 0 0 1 3.24 0Zm-2.22 2.17a3.71 3.71 0 0 0-2.66 3.82c0 2 1 3.48 2.56 3.81a3 3 0 0 0 1.23 0 3.64 3.64 0 0 0 2.66-3.83 3.66 3.66 0 0 0-2.65-3.82 2.74 2.74 0 0 0-1.14.02Zm45.4-1.71 5.6 11h-6.44l-.94-1.85H127L126 28h-3.45l5.66-11Zm-3.15 6.41-1.9-3.76-2.12 4.13h4.2ZM24 10.71V9.32l.08-.1.08-.09.09-.08.1-.08.1-.06.11-.05H25.39l.16.06.15.07.13.09.12.11.11.13.09.13 13 21.85v5Zm-6.14 11.36V20.9l.06-.11.06-.11.07-.1.08-.09.09-.08.1-.08.11-.06.11-.05H19.37l.16.06.14.07.14.09.12.11.11.13.09.13 9.25 15.49h-3Zm-6.25 11.2V32.1l.06-.11.06-.11.07-.1.09-.09.09-.08.09-.07.11-.07h.11l.12-.05H13.12l.16.06.14.07.14.09.12.11.11.13.09.13 2.56 4.29h-3ZM29.29 8.79h9.94v16.65Z"
            fill="#fefefe" fill-rule="evenodd" />
    </g>
</svg>