<svg width="52" height="52" viewBox="0 0 52 52" fill="none" xmlns="http://www.w3.org/2000/svg">
<path fill-rule="evenodd" clip-rule="evenodd" d="M37.4321 13.0478V13.0478C43.7463 19.362 43.7463 29.5992 37.4321 35.9133L28.6935 44.6519C27.2056 46.1399 24.7932 46.1399 23.3053 44.6519L14.5667 35.9133C8.25253 29.5992 8.25253 19.362 14.5667 13.0478V13.0478C20.8808 6.73372 31.118 6.73372 37.4321 13.0478Z" stroke="#E63327" stroke-width="3" stroke-linecap="round" stroke-linejoin="round"/>
<path fill-rule="evenodd" clip-rule="evenodd" d="M37.4321 13.0478V13.0478C43.7463 19.362 43.7463 29.5992 37.4321 35.9133L28.6935 44.6519C27.2056 46.1399 24.7932 46.1399 23.3053 44.6519L14.5667 35.9133C8.25253 29.5992 8.25253 19.362 14.5667 13.0478V13.0478C20.8808 6.73372 31.118 6.73372 37.4321 13.0478Z" stroke="#E63327" stroke-width="3" stroke-linecap="round" stroke-linejoin="round"/>
<circle cx="26" cy="24.481" r="5.54759" stroke="#E63327" stroke-width="3" stroke-linecap="round" stroke-linejoin="round"/>
</svg>
