<svg width="52" height="52" viewBox="0 0 52 52" fill="none" xmlns="http://www.w3.org/2000/svg">
<path d="M19.412 41.8C19.1187 41.8 18.8693 41.712 18.664 41.536C18.488 41.3307 18.4 41.0813 18.4 40.788V35.156H15.012C14.7187 35.156 14.4693 35.068 14.264 34.892C14.088 34.6867 14 34.4373 14 34.144V33.132C14 32.8387 14.088 32.604 14.264 32.428C14.4693 32.2227 14.7187 32.12 15.012 32.12H18.4V29.612H15.012C14.7187 29.612 14.4693 29.524 14.264 29.348C14.088 29.1427 14 28.8933 14 28.6L14 27.104C14 26.8107 14.088 26.576 14.264 26.4C14.4693 26.1947 14.7187 26.092 15.012 26.092H18.4L18.4 12.056C18.4 11.7333 18.488 11.484 18.664 11.308C18.8693 11.1027 19.1187 11 19.412 11L30.588 11C32.7587 11 34.636 11.352 36.22 12.056C37.8333 12.76 39.08 13.816 39.96 15.224C40.84 16.6027 41.28 18.3333 41.28 20.416C41.28 22.4693 40.84 24.1707 39.96 25.52C39.08 26.8693 37.8333 27.896 36.22 28.6C34.636 29.2747 32.7587 29.612 30.588 29.612L22.8 29.612V32.12H31.292C31.5853 32.12 31.82 32.2227 31.996 32.428C32.2013 32.604 32.304 32.8387 32.304 33.132V34.144C32.304 34.4373 32.2013 34.6867 31.996 34.892C31.82 35.068 31.5853 35.156 31.292 35.156H22.8L22.8 40.788C22.8 41.0813 22.6973 41.3307 22.492 41.536C22.316 41.712 22.0667 41.8 21.744 41.8H19.412ZM22.756 26.092H30.368C32.5387 26.092 34.1667 25.608 35.252 24.64C36.3373 23.672 36.88 22.264 36.88 20.416C36.88 18.5973 36.352 17.1893 35.296 16.192C34.24 15.1947 32.5973 14.696 30.368 14.696L22.756 14.696V26.092Z" fill="#E63327"/>
</svg>
