<svg width="16" height="16" viewBox="0 0 16 16" fill="none" xmlns="http://www.w3.org/2000/svg">
<g clip-path="url(#clip0_918_1206)">
<path d="M1.79577 9.86122L2.97912 8.67787L8.304 3.35323C9.28537 2.37921 10.8695 2.38215 11.8472 3.35984C12.8249 4.33753 12.8278 5.92166 11.8538 6.90303L6.52916 12.2293C6.31138 12.4472 5.95813 12.4472 5.74022 12.2293C5.52244 12.0114 5.52244 11.6582 5.74022 11.4403L11.0649 6.11409C11.6094 5.56951 11.6094 4.68675 11.0649 4.14217C10.5203 3.59759 9.63752 3.59759 9.09294 4.14217L3.76671 9.46681L2.58336 10.65C1.60297 11.6308 1.60334 13.2205 2.58397 14.2008C3.56473 15.1811 5.15437 15.1808 6.13476 14.2001L7.12065 13.2138L12.6426 7.69185L13.0372 7.29744C14.4161 5.87536 14.3986 3.60984 12.998 2.20907C11.5972 0.808434 9.33167 0.790918 7.90959 2.16988L1.99322 8.08638C1.85224 8.22724 1.64682 8.28223 1.4544 8.23067C1.26185 8.1791 1.11143 8.02881 1.05987 7.83626C1.0083 7.64371 1.06342 7.43842 1.20428 7.29744L7.12065 1.38106C8.97352 -0.463351 11.9697 -0.459921 13.8183 1.38878C15.667 3.23735 15.6704 6.23351 13.826 8.08638L7.90959 14.0028L6.92222 14.989C5.49831 16.3567 3.24173 16.3339 1.84587 14.9376C0.44988 13.5413 0.42771 11.2848 1.79577 9.86122Z" fill="white"/>
</g>
<defs>
<clipPath id="clip0_918_1206">
<rect width="16" height="16" fill="white" transform="matrix(-1 0 0 1 16 0)"/>
</clipPath>
</defs>
</svg>
