<svg width="52" height="52" viewBox="0 0 52 52" fill="none" xmlns="http://www.w3.org/2000/svg">
<path fill-rule="evenodd" clip-rule="evenodd" d="M43.3333 24.2277C43.3333 34.0665 35.9385 43.2662 26 45.5C16.0615 43.2662 8.66663 34.0665 8.66663 24.2277V15.6932C8.66663 13.9338 9.73046 12.3478 11.3598 11.6827L22.1931 7.24967C24.6328 6.25084 27.3671 6.25084 29.8068 7.24967L40.6401 11.6827C42.2695 12.35 43.3333 13.9338 43.3333 15.6932V24.2277V24.2277Z" stroke="#E63327" stroke-width="3" stroke-linecap="round" stroke-linejoin="round"/>
<path fill-rule="evenodd" clip-rule="evenodd" d="M26 20.891C26.5806 20.2367 27.5838 19.5 29.1135 19.5C31.7871 19.5 33.5833 21.9202 33.5833 24.1757C33.5833 28.8882 27.4993 32.5 26 32.5C24.5006 32.5 18.4166 28.8882 18.4166 24.1757C18.4166 21.9202 20.2106 19.5 22.8865 19.5C24.4161 19.5 25.4193 20.2367 26 20.891Z" stroke="#E63327" stroke-width="3" stroke-linecap="round" stroke-linejoin="round"/>
</svg>
