<svg viewBox="0 0 52 52" fill="none" xmlns="http://www.w3.org/2000/svg">
<path d="M45.0505 20.634C46.7622 22.3458 46.7622 25.121 45.0505 26.8327C43.3387 28.5445 40.5635 28.5445 38.8517 26.8327C37.14 25.121 37.14 22.3458 38.8517 20.634C40.5635 18.9223 43.3387 18.9223 45.0505 20.634" stroke="#E63327" stroke-width="3" stroke-linecap="round" stroke-linejoin="round"/>
<path d="M30.7727 12.81C33.4084 15.4457 33.4084 19.719 30.7727 22.3547C28.137 24.9905 23.8637 24.9905 21.2279 22.3547C18.5922 19.719 18.5922 15.4457 21.2279 12.81C23.8636 10.1743 28.137 10.1743 30.7727 12.81" stroke="#E63327" stroke-width="3" stroke-linecap="round" stroke-linejoin="round"/>
<path d="M13.1487 20.634C14.8604 22.3458 14.8604 25.121 13.1487 26.8327C11.4369 28.5445 8.66167 28.5445 6.94994 26.8327C5.2382 25.121 5.2382 22.3458 6.94994 20.634C8.66167 18.9223 11.4369 18.9223 13.1487 20.634" stroke="#E63327" stroke-width="3" stroke-linecap="round" stroke-linejoin="round"/>
<path d="M49.8333 41.1663V38.7917C49.8333 35.7995 47.4088 33.375 44.4166 33.375H42.6811" stroke="#E63327" stroke-width="3" stroke-linecap="round" stroke-linejoin="round"/>
<path d="M2.16681 41.1663V38.7917C2.16681 35.7995 4.59131 33.375 7.58348 33.375H9.31898" stroke="#E63327" stroke-width="3" stroke-linecap="round" stroke-linejoin="round"/>
<path d="M37.5678 41.1665V37.6977C37.5678 33.5095 34.1727 30.1143 29.9845 30.1143H22.0133C17.8252 30.1143 14.43 33.5095 14.43 37.6977V41.1665" stroke="#E63327" stroke-width="3" stroke-linecap="round" stroke-linejoin="round"/>
</svg>
