<svg id="Layer_1" data-name="Layer 1" xmlns="http://www.w3.org/2000/svg" xmlns:xlink="http://www.w3.org/1999/xlink" viewBox="0 0 12 12"><defs><style>.cls-1{fill:none;}.cls-2{clip-path:url(#clip-path);}</style><clipPath id="clip-path"><rect class="cls-1" width="12" height="12"/></clipPath></defs><g class="cls-2"><path d="M8.77,7V7c-1.1-.54-1.21-.62-1.36-.4a7.37,7.37,0,0,1-.47.58c-.09.1-.17.1-.32,0a4.28,4.28,0,0,1-1.2-.75,4.28,4.28,0,0,1-.83-1c-.15-.26.16-.29.44-.82a.26.26,0,0,0,0-.26c0-.08-.33-.81-.46-1.1S4.3,3,4.21,3a.78.78,0,0,0-.69.17c-.8.89-.6,1.8.09,2.78A5.91,5.91,0,0,0,7,8.51,2.09,2.09,0,0,0,8,8.58a1.56,1.56,0,0,0,1-.72,1.18,1.18,0,0,0,.09-.71C9,7.08,8.92,7,8.77,7Z"/><path d="M10.26,1.72A6,6,0,0,0,.05,6a5.86,5.86,0,0,0,.8,3L0,12l3.17-.83A6,6,0,0,0,12,6a5.91,5.91,0,0,0-1.75-4.21ZM11,5.93a5,5,0,0,1-7.51,4.25l-.17-.1-1.88.48.5-1.82-.12-.19A5,5,0,0,1,9.55,2.44,4.91,4.91,0,0,1,11,5.93Z"/></g></svg>