<svg id="Layer_1" data-name="Layer 1" xmlns="http://www.w3.org/2000/svg" viewBox="0 0 22.75 16.5"><path d="M22.75,8.18V8c0-.21,0-.44,0-.69,0-.71-.05-1.41-.11-2.08A12.23,12.23,0,0,0,22.28,3a3.53,3.53,0,0,0-.91-1.59A3.59,3.59,0,0,0,19.79.47,21.75,21.75,0,0,0,15.68.08c-.94,0-1.95-.06-3-.07H10c-1,0-2,0-3,.07A23.64,23.64,0,0,0,3,.47,3.5,3.5,0,0,0,.47,3,12.23,12.23,0,0,0,.13,5.22C.07,5.89,0,6.59,0,7.3,0,7.55,0,7.78,0,8v.52C0,8.72,0,9,0,9.2c0,.7.05,1.41.11,2.08a12.23,12.23,0,0,0,.34,2.25A3.52,3.52,0,0,0,3,16a23.64,23.64,0,0,0,4.11.39c.94,0,1.95.06,3,.07h2.69c1,0,2,0,3-.07A23.64,23.64,0,0,0,19.79,16a3.52,3.52,0,0,0,2.49-2.5,12.23,12.23,0,0,0,.34-2.25c.06-.67.09-1.38.11-2.08,0-.25,0-.48,0-.69V8.18Zm-1.83.13v.18c0,.2,0,.42,0,.65,0,.68-.06,1.35-.11,2a12.3,12.3,0,0,1-.28,1.94,1.71,1.71,0,0,1-1.21,1.2,22,22,0,0,1-3.7.33c-.92,0-1.92.06-2.91.07H10.05c-1,0-2,0-2.91-.07a22,22,0,0,1-3.7-.33,1.71,1.71,0,0,1-1.21-1.2A13.61,13.61,0,0,1,2,11.12c-.05-.63-.09-1.3-.11-2,0-.23,0-.45,0-.65V8c0-.2,0-.42,0-.65,0-.68.06-1.36.11-2a13.61,13.61,0,0,1,.28-1.94A1.72,1.72,0,0,1,3.44,2.23a23.62,23.62,0,0,1,3.7-.32c.92,0,1.92-.06,2.91-.07H12.7c1,0,2,0,2.91.07a23.62,23.62,0,0,1,3.7.32,1.72,1.72,0,0,1,1.21,1.21,12.3,12.3,0,0,1,.28,1.94c.05.62.09,1.3.11,2,0,.23,0,.45,0,.65v.3ZM9.12,11.65,15,8.22,9.12,4.85Z"/></svg>