<svg id="Layer_1" data-name="Layer 1" xmlns="http://www.w3.org/2000/svg" xmlns:xlink="http://www.w3.org/1999/xlink" viewBox="0 0 186 45"><defs><style>.cls-1{fill:none;}.cls-2{clip-path:url(#clip-path);}.cls-3{fill:#e63327;}.cls-4{fill:#fefefe;fill-rule:evenodd;}</style><clipPath id="clip-path"><rect class="cls-1" width="186" height="45"/></clipPath></defs><g class="cls-2"><path class="cls-3" d="M186,0H0V45H186Z"/><path class="cls-4" d="M20.9,9.21V10.5l0,.15,0,.15,0,.15,0,.14,0,.15,0,.14,0,.14.05.13.06.14.06.13.06.13.07.13.07.12,14.3,23.94h-3L22.54,19.13,22.46,19l-.08-.11-.08-.11-.08-.11-.09-.1L22,18.47l-.1-.1-.1-.09-.1-.1-.1-.09L21.53,18l-.11-.09-.11-.07-.12-.08-.11-.07L21,17.63l-.12-.07-.13-.06-.12-.05-.13-.06-.13-.05-.14,0-.13,0-.14,0-.13,0-.14,0-.14,0-.15,0h-.65l-.21,0-.22,0-.21,0-.2,0-.2.06-.2.07-.19.08-.19.08-.18.1-.18.1-.17.11-.17.12-.16.13-.16.14-.14.14-.15.15-.13.15-.13.17-.11.17-.11.17-.11.18-.09.19-.09.19-.07.19-.07.2-.06.2-.05.21,0,.21,0,.22,0,.21v.68l0,.15,0,.15,0,.15,0,.14,0,.15.05.14,0,.14L15,23l0,.14.06.13.07.13.07.13.07.12,7.51,12.58h-3l-3.52-5.91-.08-.11-.08-.12L16.05,30,16,29.88l-.09-.1-.09-.11-.1-.09-.1-.1-.1-.09-.1-.09-.11-.09-.11-.08-.11-.08L15,29l-.12-.07-.12-.07-.12-.06-.13-.07-.12-.05-.13,0-.13-.05L14,28.5l-.14,0-.13,0-.14,0-.14,0-.14,0-.14,0H11.89l-.07,0h-.06l-.07,0-.2.05V8.79H21l-.07.3,0,.06Zm98.52,11.33h3.46V24h-3.46Zm-66.76.75V28H47.3V17h5.26l5.75,6.72,0-6.72h5.3V28H58ZM169.43,28H164V19.52h-5.12V17h15.67v2.48h-5.16ZM66,28V17H80v2.34H71.38v2H80v2.34H71.37v2H80V28Zm40.17-6.68V28h-5.37V17h5.26l5.75,6.72,0-6.72h5.3V28h-5.63ZM155.87,24l2.84,4h-5.84l-2.56-3.9h-2.94V28h-5.31V17l11.74,0A4.08,4.08,0,0,1,157,18a3.69,3.69,0,0,1,1,2.58A3.59,3.59,0,0,1,155.87,24Zm-8.5-2.25h4.1l.48,0a1.11,1.11,0,0,0,1-1.13,1.13,1.13,0,0,0-.83-1.1,3,3,0,0,0-.57-.06h-4.18ZM92.16,16.54c4.07.45,7.14,2.59,7.16,6s-3.15,5.59-7.3,6a15.1,15.1,0,0,1-3.08,0c-4.12-.44-7.26-2.59-7.25-6s3.13-5.56,7.23-6A14.63,14.63,0,0,1,92.16,16.54Zm-2.22,2.17a3.71,3.71,0,0,0-2.66,3.82c0,2,1,3.48,2.56,3.81a3,3,0,0,0,1.23,0,3.64,3.64,0,0,0,2.66-3.83,3.66,3.66,0,0,0-2.65-3.82A2.74,2.74,0,0,0,89.94,18.71ZM135.34,17l5.6,11H134.5l-.94-1.85,0,0H127L126,28h-3.45L128.21,17Zm-3.15,6.41-1.9-3.76-2.12,4.13h4.2ZM24,10.71l0-.07,0-.08,0-.08,0-.09,0-.08v-.4l0-.13,0-.12,0-.12L24,9.43,24,9.32l.08-.1.08-.09.09-.08.1-.08.1-.06.11-.05.12,0,.12,0,.13,0h.13l.17,0,.16,0,.16.06.15.07.13.09.12.11.11.13.09.13,13,21.85v5ZM17.86,22.07l0-.07,0-.08,0-.08,0-.09,0-.08v-.4l0-.13,0-.12,0-.12.06-.11.06-.11.07-.1.08-.09.09-.08.1-.08.11-.06.11-.05.12,0,.12,0,.12,0h.13l.17,0,.17,0,.16.06.14.07.14.09.12.11.11.13.09.13,9.25,15.49h-3Zm-6.25,11.2,0-.07,0-.08,0-.08,0-.09,0-.08v-.4l0-.13,0-.12,0-.12.06-.11.06-.11.07-.1.09-.09.09-.08.09-.07.11-.07.11,0,.12-.05.12,0,.12,0h.31l.16,0,.16.06.14.07.14.09.12.11.11.13.09.13,2.56,4.29h-3ZM29.29,8.79h9.94V25.44Z"/></g></svg>