<svg id="Layer_1" data-name="Layer 1" xmlns="http://www.w3.org/2000/svg" viewBox="0 0 680 800">
    <defs>
        <style>
            .cls-1 {
                fill: #fefefe;
                fill-rule: evenodd;
                opacity: 0.02;
                isolation: isolate;
            }
        </style>
    </defs>
    <path class="cls-1"
        d="M402.22-108.44l-.48,2.64-.48,2.65-.4,2.68-.38,2.69-.37,2.67-.28,2.72-.26,2.72-.24,2.74-.19,2.74L399-81.45l-.09,2.76-.06,2.77,0,2.75.13,6.59.35,6.49.56,6.43.79,6.38,1,6.3,1.21,6.23,1.42,6.15,1.62,6.07,1.82,6,2,5.92,2.2,5.82L414.32.9l2.56,5.61,2.77,5.55,2.93,5.41,3.14,5.36,606.53,1017h-127L471.65,312.89l-3.23-5-3.33-4.82-3.46-4.71-3.62-4.6-3.74-4.48-3.9-4.35-4-4.23-4.16-4.09-4.29-4-4.39-3.81L429,265.16l-4.65-3.54-4.76-3.37L414.7,255l-5-3.07-5.07-2.89-5.19-2.76-5.25-2.59-5.36-2.41-5.45-2.24L377.88,237l-5.62-1.87-5.69-1.71-5.76-1.51L355,230.6l-5.89-1.15-6-.92-6-.73-6.08-.53-6.17-.3-6.18-.13-9.29.26-9.13.7-9,1.17-8.87,1.59-8.71,2.06L265,235.1,256.66,238l-8.17,3.28-8,3.65-7.8,4.05-7.55,4.41-7.33,4.76-7.07,5.1-6.83,5.44-6.54,5.76-6.29,6.05-6,6.35-5.68,6.65-5.38,6.91L169,307.55,164.34,315,160,322.62l-4,7.87-3.63,8.09-3.24,8.29-2.84,8.45L143.85,364l-2,8.81-1.59,9-1.16,9.12-.7,9.26-.25,9.41.13,6.5.36,6.5.55,6.44.79,6.36,1,6.32,1.21,6.22,1.42,6.14,1.61,6.07,1.82,6,2,5.94,2.22,5.81,2.39,5.7,2.56,5.64,2.75,5.5,2.93,5.43,3.14,5.36,318.7,534.38H356.14l-149.71-251-3.22-5L199.88,779l-3.46-4.72-3.63-4.59L189,765.2l-3.88-4.35-4.05-4.23L177,752.53l-4.27-4-4.42-3.82-4.51-3.66-4.66-3.53-4.75-3.39L149.49,731l-5-3.07-5.07-2.9-5.17-2.76L129,719.64l-5.37-2.42L118.19,715l-5.53-2.07-5.6-1.89-5.71-1.7-5.75-1.5-5.86-1.32-5.89-1.13-6-.94-6-.71-6.11-.54-6.16-.3-6.24-.12-2.84,0-2.85.08-2.87.1-2.83.16-2.83.22-2.83.25-2.82.3-2.8.3-2.75.4-2.76.42-2.77.47-2.75.5-2.73.55-2.7.6-2.71.63L2.64,710V-126.44H406.27l-2.93,12.73-.58,2.62ZM533.82-45l-1.7-3-1.61-3.32-1.35-3.44L528-58.35,527.1-62l-.66-3.75-.41-3.8-.14-4,.28-5.51.83-5.39,1.33-5.24,1.81-5,2.28-4.74,2.71-4.5,3.11-4.19L541.7-112l3.83-3.5,4.14-3.15,4.45-2.74,4.71-2.31,4.95-1.83,5.16-1.37,5.35-.81,5.56-.3,7.25.5,7,1.47,6.65,2.34,6.25,3.2,5.74,3.95,5.17,4.61,4.55,5.29,3.68,5.54L1180,827.16V1038ZM273.15,437.63l-1.7-3-1.61-3.32-1.38-3.45-1.13-3.53-.9-3.65-.67-3.75-.4-3.82-.16-4,.29-5.51.83-5.39,1.32-5.22,1.81-5,2.29-4.76,2.69-4.5,3.1-4.21,3.49-3.86,3.83-3.52L289,364l4.43-2.73,4.72-2.31,5-1.83,5.17-1.35,5.33-.83,5.57-.3,7.24.51,7,1.46,6.68,2.38,6.22,3.16,5.75,3.95,5.16,4.61L361.8,376l3.68,5.54L758.36,1040H632.54ZM7.93,913.54l-1.7-3-1.61-3.31-1.35-3.44-1.14-3.56-.92-3.66-.67-3.74L.14,889,0,885l.28-5.49.82-5.4,1.34-5.23,1.82-5,2.27-4.78,2.7-4.48,3.12-4.2,3.46-3.87L19.64,843l4.14-3.12,4.45-2.74,4.7-2.3,5-1.85,5.15-1.34,5.33-.82,5.57-.31,7.25.49,7,1.49,6.65,2.34,6.24,3.18,5.75,4,5.18,4.62,4.53,5.28,3.68,5.54L209.18,1040H83.37Zm750.23-1040H1180V580.88Z" />
</svg>