<svg id="Layer_1" data-name="Layer 1" xmlns="http://www.w3.org/2000/svg" viewBox="0 0 15.1 14.34"><defs><style>.cls-1{fill:#fff;}</style></defs><path class="cls-1" d="M3.54,8.9a2.7,2.7,0,0,1,1.38.9,2.39,2.39,0,0,1,.54,1.56,2.44,2.44,0,0,1-.72,1.8A2.4,2.4,0,0,1,3,13.87,2.44,2.44,0,0,1,.49,11.36,9.44,9.44,0,0,1,1,8.6L3.36.46h2.1Zm9.16,0a2.7,2.7,0,0,1,1.38.9,2.39,2.39,0,0,1,.54,1.56,2.44,2.44,0,0,1-.72,1.8,2.4,2.4,0,0,1-1.74.71,2.44,2.44,0,0,1-2.51-2.51,9.44,9.44,0,0,1,.54-2.76L12.52.46h2.1Z"/></svg>