
<svg xmlns="http://www.w3.org/2000/svg" viewBox="0 0 305.73 174.68">
  <path d="M305.62 13.05a1.5 1.5 0 00-1.95-.83C286 19.36 280.52 22 277.56 23.37c-3.72 1.76-3.72 1.76-19.6 6.83l-11.16 3.57c-21.89 7-44.54 13-66.44 18.79-14.07 3.72-28.41 7.51-42.7 11.61 1-1.81 2.05-3.63 3.07-5.43 1.53-2.74 3-5.32 4.47-7.86l2-3.37c6.91-11.85 14-24.06 22.26-35.32.57-.59 1.13-1.18 1.67-1.77 2.16-2.37 3.1-4 2.78-5l-.31-.86-.89-.14c-1-.17-1.52.44-3.3 2.76l-2.23 3c-6.14 6.21-11.78 9.1-19 9.84a2.85 2.85 0 01-1.07 0 4.09 4.09 0 01.35-1.82 6.48 6.48 0 01.23-.63c1.49-1.81 1.79-2.62 1.37-3.46l-.48-.9-1 .07c-1.09.08-2 1.53-2.48 2.71l-.07.08c-2.8 3.31-7.32 7.6-12.89 9.27-2.49.75-3.06.26-3.12.2-.77-.77.37-4.41 1-6.36l.24-.77a1.57 1.57 0 00-.8-2.14c-1.33-.56-1.8.32-3 2.66-.45.84-1 1.78-1.25 2.25a98.07 98.07 0 01-8.82 11.61c-.93 1.07-2 2.41-3.1 3.83C109 42 103.27 49.2 97.75 50.64v-.36a2.24 2.24 0 00-.35-1.93l-.4-.51h-.67c-.66 0-.74 0-6.34 4.13-1 .7-2 1.49-2.18 1.59a192 192 0 00-20.69 13.58C76 46.79 85.43 26 98.81 8.41a43.6 43.6 0 012.36-2.75 9.93 9.93 0 003.12-2.81c1-1.49.23-2.27-.14-2.53-1.23-.88-2.15.1-4.38 2.45l-.52.55c-.32.2-.65.39-1 .57l-.44.25C92.78 7 87.55 10 81.92 10.31a6.66 6.66 0 01-2.44-.31c-2.35-.67-3.45-.05-5.14 2.89C68.46 23.1 63.88 34.24 59.45 45l-.66 1.61a1.5 1.5 0 002.77 1.15l.67-1.62c4.39-10.67 8.93-21.71 14.71-31.78A10.82 10.82 0 0178 12.72a3.78 3.78 0 01.61.14 9.77 9.77 0 003.43.44 30.68 30.68 0 0012.19-3.76C81.13 27.67 71.91 48.71 63 69.09L62.15 71c-25.21 20.36-44.5 46.61-55.55 76.08a130.34 130.34 0 00-5.84 20.39c0 .17-.09.4-.16.67-.51 2.1-.92 4.09-.25 5.44a2 2 0 001.52 1.08h.23c3.58 0 13.08-10.1 13.18-10.2 12.14-13.21 21-29.11 28.78-45.54 4.2.36 9.39-1.83 9.46-1.86 9.12-3.93 15.47-12.54 21.07-20.14.53-.72 1-1.43 1.57-2.12 1.91-2.57 3.9-5.31 5.9-8.2q7.25-3.39 14.73-6.24a43.62 43.62 0 009.4 8.34c6.32 4.14 10.86 3.68 15.68-1.57a114.16 114.16 0 0013.61-19.23c15.26-4.43 30.61-8.49 45.65-12.46 21.94-5.8 44.62-11.8 66.59-18.84l11.15-3.56c16.07-5.14 16.07-5.14 20-7 2.93-1.39 8.38-4 26-11.08a1.5 1.5 0 00.75-1.91zM13.07 162.45c-1.71 1.85-7.49 7.31-10 8.84a21.37 21.37 0 01.49-2.43l.18-.8a127.73 127.73 0 015.71-19.93 175.33 175.33 0 0150-70.94c-.94 2.12-1.88 4.24-2.82 6.32-2 4.3-3.9 8.77-5.8 13.09l-2.76 6.3c-3.82 3-8.61 7.4-9 11.06a4.13 4.13 0 001.2 3.44 4.81 4.81 0 00.88.68c-7.62 16.06-16.31 31.57-28.08 44.37zm29.37-47.13a1.13 1.13 0 01-.34-1c.13-1.26 1.34-2.94 3-4.7l-2.66 5.7zM73.75 93l-1.58 2.13c-5.37 7.29-11.46 15.56-19.83 19.16a21.6 21.6 0 01-6.9 1.66c1.72-3.7 3.39-7.43 5-11.15 1.27-1 2.5-1.85 3.58-2.56a220.89 220.89 0 0122.45-12.91q-1.38 1.9-2.72 3.67zm6.3-8.78a222.76 222.76 0 00-27.23 15.27l.74-1.69c1.89-4.31 3.84-8.77 5.78-13 1.77-3.9 3.53-7.91 5.26-11.86a189.81 189.81 0 0124.65-16.77c.23-.13.7-.47 2.48-1.78.83-.62 2-1.52 3.09-2.27a2.29 2.29 0 00.62 1.14 1.93 1.93 0 001 .52 8.62 8.62 0 00-3.27.92c-2.55 1.43-3.17 4.3-3.41 6.4a19.81 19.81 0 00.32 6.38 143.78 143.78 0 01-10.03 16.77zm14.78-27a41.86 41.86 0 01-2.16 5c0-.25 0-.49.07-.73.27-2.25.82-3.53 1.8-4.13zm-9.6 24.68c2.12-3.28 4.19-6.72 6.12-10.33a31.55 31.55 0 003.53 6.35q-4.88 1.87-9.65 3.97zm34.42 3.24c-3.77 4.12-6.76 4.39-11.82 1.08a41.33 41.33 0 01-8.06-6.94q2.27-.83 4.54-1.6c8.88-3 17.88-5.83 26.93-8.51a101.59 101.59 0 01-11.59 15.96zm13.85-19.76c-10.13 3-20.22 6.07-30.16 9.45l-5.58 2a26.68 26.68 0 01-4.52-9c.29-.57.56-1.15.84-1.74l.8-1.64c1.3-2.6 3.07-6.16 3.39-8.79a1.67 1.67 0 00-1.37-1.86h.27c7-.93 13.59-9.26 18.38-15.33 1.1-1.39 2.13-2.71 3-3.72a108.62 108.62 0 007.28-9.25 3.79 3.79 0 001 2.14c1.23 1.25 3.23 1.43 6.11.57a28.68 28.68 0 0011.33-7 2.65 2.65 0 00.43.72c1.11 1.39 3.08 1.19 3.72 1.12a30.48 30.48 0 0012.65-4.13C155.21 27.78 149.83 37 144.58 46l-2 3.36c-1.5 2.57-3 5.16-4.5 7.91s-3.01 5.41-4.58 8.11z" fill="#fff" fill-opacity="0.23"/>
</svg>