<svg id="Layer_1" data-name="Layer 1" xmlns="http://www.w3.org/2000/svg" xmlns:xlink="http://www.w3.org/1999/xlink" viewBox="0 0 72.86 18"><defs><style>.cls-1{fill:none;}.cls-2{clip-path:url(#clip-path);}.cls-3{fill:#fff;}.cls-3,.cls-4{fill-rule:evenodd;}.cls-4{fill:#f9cc46;}</style><clipPath id="clip-path"><rect class="cls-1" width="72.86" height="18"/></clipPath></defs><g class="cls-2"><path class="cls-3" d="M39.17,4.36c.18.18,1.75,4.5,1.92,5A7.32,7.32,0,0,0,41.78,11c.55.13.6-.44.76-.89.9-2.41,2.26-5.94,2.94-8.32C46,.66,46,.35,45.14.35S44.38.93,44,1.67c-.3,1.42-1.46,4.41-1.88,5.79,0,.18,0,.18-.22.18-.71-2-1.53-4.55-2.34-6.57-.21-.4-.59-.48-.85.4-.43,1.41-1,3.08-1.5,4.44,0,0-.55,1.73-.59,1.82A5.36,5.36,0,0,1,36,6.14c-.64-1.63-1.2-3.39-1.74-5-.14-.31-.14-.49-.44-.67A1.68,1.68,0,0,0,32.9.36c-.84.14-.29.84-.12,1.37,1,2.86,2.18,6.3,3.32,9a.37.37,0,0,0,.13.17.34.34,0,0,0,.19.09.39.39,0,0,0,.21,0,.4.4,0,0,0,.16-.13C37,10.53,39.05,4.36,39.17,4.36Z"/><path class="cls-3" d="M.16.53a.91.91,0,0,0,0,.54c.17.74-.34,9.25-.21,9.59a2,2,0,0,0,1.33.13c.2-.23.12-.44.12-.79,0-1.51.13-3,.13-4.5,0-.58.09-1,.09-1.32s0-.31.08-.4A24.84,24.84,0,0,1,3.32,6.39c.26.53.76,1.33,1.1,1.94.52,1,.77.31.9.09C5.62,8,7.93,3.84,8.09,3.75a44.2,44.2,0,0,1,.16,4.67c0,2.29-.26,2.51,1.14,2.42.43,0,.47-.35.43-.75V7.76c-.11-1.9-.19-4.06-.19-5.95,0-.22.08-1.06.08-1.19A.82.82,0,0,0,9.22.34a.79.79,0,0,0-.54.1c-.3.18-.38.57-.6.84-.87,1.59-2,3.39-2.84,4.89-.3.53-.3.35-.56,0C4.12,5.33,3.4,3.88,2.9,3l-1-1.76A3.35,3.35,0,0,0,1.32.44C1,.22.46.39.16.53Z"/><path class="cls-3" d="M54.56,5.47a2.7,2.7,0,0,1,1.26-.61,2.73,2.73,0,0,1,1.39.07c1.36.62,1.53,2.7.93,3.71a2.18,2.18,0,0,1-1,.87,2.12,2.12,0,0,1-1.34.08,3,3,0,0,1-1.19-.53Zm0-1.51a28.86,28.86,0,0,1,0-3.48c0-.48-.17-.57-.6-.4-1,.45-1,.27-.89,1.24.08.49,0,6.17,0,7,0,1.58-.21,1.94,2,2.6a4.63,4.63,0,0,0,3.68-.76c2.18-1.84,1.58-7-2.39-6.65a8.78,8.78,0,0,0-1,.13c-.13,0-.64.35-.7.35Z"/><path class="cls-3" d="M24.5,10.75A4.12,4.12,0,0,0,24.63,9a13.82,13.82,0,0,1,0-1.82c.13,0,.26.23.52.49s2.38,2.56,2.72,2.82a1,1,0,0,0,.42.24.87.87,0,0,0,.48,0c.3,0,.77,0,.94-.21,0-.31-.6-.8-.86-1.06s-.59-.61-.89-1a19.61,19.61,0,0,1-1.83-1.93c0-.1,2.34-2.13,2.77-2.52.17-.18.34-.22.3-.49a2.67,2.67,0,0,0-1.63,0c-.2.1-1.62,1.42-2,1.77-.12.13-.85.93-.94.89-.12-.41,0-5.92-.08-6.23S23,.22,23.06.76a5.38,5.38,0,0,1,.12,1.14V9.52c0,.26-.08,1.06.09,1.19A2.69,2.69,0,0,0,24.5,10.75Z"/><path class="cls-3" d="M13.4,7.14c.47-.13,2.06.27,2.13.7a8.42,8.42,0,0,1,0,1.42c-.3.39-2.35,1.18-3-.22a1.53,1.53,0,0,1,0-1.28,1.36,1.36,0,0,1,.38-.41A1.24,1.24,0,0,1,13.4,7.14Zm2.17-.53A3.61,3.61,0,0,0,14.25,6a4.69,4.69,0,0,0-1.75.13A2.31,2.31,0,0,0,11.29,7a2.44,2.44,0,0,0-.49,1.43,2.48,2.48,0,0,0,.44,1.45,2.32,2.32,0,0,0,1.18.89,3.73,3.73,0,0,0,2.51,0c.18-.08.52-.3.64-.35s.18.31.34.4a1.67,1.67,0,0,0,1.16-.22c.21-.21.25-.18.12-.49A2.3,2.3,0,0,1,17,8.81V5.64a1.86,1.86,0,0,0-.3-1.28c-.81-1.68-5.72-1-5.32.4s1-.49,3.19-.22c1.17.13,1,1.28,1,2.07Z"/><path class="cls-3" d="M66,6.39H62.49A2,2,0,0,1,63,5.24a2,2,0,0,1,1.19-.52,1.63,1.63,0,0,1,.69.09,1.54,1.54,0,0,1,.59.35,1.45,1.45,0,0,1,.4.55A1.6,1.6,0,0,1,66,6.39ZM62.4,7.53c.26-.12,4.12,0,4.82,0s.38-2.37-.89-3.34a3.43,3.43,0,0,0-1.8-.7,3.37,3.37,0,0,0-1.87.4,3.52,3.52,0,0,0-1.39,1.37,3.76,3.76,0,0,0-.46,1.92,3.72,3.72,0,0,0,.43,1.88,3.57,3.57,0,0,0,1.29,1.38c1.15.8,4.22.76,4.6-.48.47-1.58-.64-.7-1-.53a3.73,3.73,0,0,1-1,.27A2.19,2.19,0,0,1,62.4,7.53Z"/><path class="cls-3" d="M46.93,6.39a1.88,1.88,0,0,1,.56-1.19,1.73,1.73,0,0,1,1.19-.48,1.58,1.58,0,0,1,1.75,1.67Zm-.17,1.07h4.78c.56,0,.46-.36.42-.79A3.52,3.52,0,0,0,51.44,5,3.27,3.27,0,0,0,50.2,3.82a3.19,3.19,0,0,0-1.65-.39,3.24,3.24,0,0,0-1.62.5,3.51,3.51,0,0,0-1.3,1.4,3.69,3.69,0,0,0-.4,1.9,3.47,3.47,0,0,0,.41,1.87A3.28,3.28,0,0,0,47,10.43c1.46.93,4.31.53,4.57-.52,0-.31.21-1.07-.26-.89a5.38,5.38,0,0,1-1.8.67,2.46,2.46,0,0,1-1-.06,2.63,2.63,0,0,1-.91-.47C47.19,8.85,46.59,7.92,46.76,7.46Z"/><path class="cls-3" d="M69.91,10.8c.25-.27.21-.4.21-.79V8.94c0-1.41-.26-3.74,1.32-4.09.34-.09.42.21.86.13a2.12,2.12,0,0,0,.55-.88c0-.67-1-.8-2-.36-.3.14-.55.62-.77.66,0-.39.09-.56-.17-.92a2.43,2.43,0,0,0-.94.31c-.42.22-.51.22-.42.75s0,4.19,0,5.06C68.63,10.93,68.63,10.89,69.91,10.8Z"/><path class="cls-3" d="M19.65,10.75v-.08a19.77,19.77,0,0,0,.09-3.26c0-.85.2-2.21,1.1-2.48.72-.26.76.44,1.24,0,1.1-1.19-.38-1.67-1.28-1.28s-.77.71-1,.79a2.26,2.26,0,0,1,0-.52c0-.22-.09-.22-.18-.35a1.71,1.71,0,0,0-.93.27c-.43.17-.56.21-.43.74A16.87,16.87,0,0,1,18.32,7V9.47C18.41,10.8,18.23,10.89,19.65,10.75Z"/><path class="cls-4" d="M38.87,12.17a22.76,22.76,0,0,0-5,1.23c-.5.22-1,.35-1.53.57-1,.4-2,.75-3,1.15-.34.13-2.78.88-3.2,1-2.06.52-5.15,1.14-7.12.22-.94-.48-1,1,1.1,1.54a8.34,8.34,0,0,0,3.75-.17c1-.22,2.27-.62,3.25-.93s2.13-.66,3.2-1c.25-.09.46-.18.76-.26L32.64,15c.3-.09.52-.22.78-.31l1.63-.4c.3-.08.51-.17.77-.26a29.65,29.65,0,0,1,6.57-.71,14,14,0,0,1,1.91.23c1,.12.81-.44.13-.8A10.57,10.57,0,0,0,38.87,12.17Z"/></g></svg>